<svg xmlns="http://www.w3.org/2000/svg" xmlns:xlink="http://www.w3.org/1999/xlink" width="500" zoomAndPan="magnify" viewBox="0 0 375 374.999991" height="500" preserveAspectRatio="xMidYMid meet" version="1.0"><defs><g/><clipPath id="id1"><path d="M 73.433594 66.71875 L 296.933594 66.71875 L 296.933594 290.21875 L 73.433594 290.21875 Z M 73.433594 66.71875 " clip-rule="nonzero"/></clipPath><clipPath id="id2"><path d="M 122 132 L 256 132 L 256 250.734375 L 122 250.734375 Z M 122 132 " clip-rule="nonzero"/></clipPath><clipPath id="id3"><path d="M 123 136 L 255 136 L 255 250.734375 L 123 250.734375 Z M 123 136 " clip-rule="nonzero"/></clipPath><clipPath id="id4"><path d="M 122 148 L 233 148 L 233 250.734375 L 122 250.734375 Z M 122 148 " clip-rule="nonzero"/></clipPath><clipPath id="id5"><path d="M 120 131.484375 L 256.671875 131.484375 L 256.671875 250.734375 L 120 250.734375 Z M 120 131.484375 " clip-rule="nonzero"/></clipPath><clipPath id="id6"><path d="M 256 262 L 305 262 L 305 299.132812 L 256 299.132812 Z M 256 262 " clip-rule="nonzero"/></clipPath><clipPath id="id7"><path d="M 105 251.132812 L 269 251.132812 L 269 289 L 105 289 Z M 105 251.132812 " clip-rule="nonzero"/></clipPath><clipPath id="id8"><path d="M 70 262 L 119 262 L 119 299.132812 L 70 299.132812 Z M 70 262 " clip-rule="nonzero"/></clipPath></defs><rect x="-37.5" width="450" fill="#ffffff" y="-37.499999" height="449.999989" fill-opacity="1"/><rect x="-37.5" width="450" fill="#ffffff" y="-37.499999" height="449.999989" fill-opacity="1"/><rect x="-37.5" width="450" fill="#ffffff" y="-37.499999" height="449.999989" fill-opacity="1"/><rect x="-37.5" width="450" fill="#ffffff" y="-37.499999" height="449.999989" fill-opacity="1"/><g clip-path="url(#id1)"><path fill="#2e0a08" d="M 290.019531 208.265625 C 287.1875 217.910156 282.859375 227.0625 277.492188 235.492188 C 273.058594 242.351562 268.019531 248.796875 262.355469 254.664062 C 261.625 255.464844 260.808594 256.179688 260.027344 256.9375 C 259.238281 257.679688 258.46875 258.445312 257.664062 259.171875 L 255.207031 261.304688 L 253.980469 262.375 L 252.707031 263.386719 L 250.164062 265.417969 C 249.304688 266.074219 248.414062 266.699219 247.542969 267.34375 C 245.816406 268.664062 243.984375 269.824219 242.1875 271.042969 C 241.929688 271.21875 241.65625 271.402344 241.371094 271.59375 C 241.078125 271.769531 240.777344 271.949219 240.457031 272.140625 C 239.824219 272.519531 239.144531 272.929688 238.417969 273.363281 C 236.980469 274.261719 235.285156 275.113281 233.453125 276.085938 C 232.992188 276.324219 232.527344 276.582031 232.039062 276.816406 C 231.550781 277.046875 231.050781 277.277344 230.542969 277.511719 C 229.523438 277.984375 228.46875 278.472656 227.378906 278.976562 C 225.144531 279.847656 222.816406 280.894531 220.277344 281.710938 C 210.253906 285.34375 197.742188 287.589844 185.183594 287.644531 C 172.628906 287.589844 160.117188 285.34375 150.09375 281.710938 C 147.550781 280.894531 145.226562 279.847656 142.992188 278.976562 C 141.902344 278.472656 140.847656 277.984375 139.828125 277.511719 C 139.320312 277.277344 138.820312 277.046875 138.328125 276.816406 C 137.839844 276.585938 137.378906 276.324219 136.917969 276.085938 C 135.085938 275.113281 133.386719 274.261719 131.953125 273.363281 C 131.226562 272.929688 130.546875 272.519531 129.910156 272.140625 C 129.59375 271.953125 129.289062 271.769531 128.996094 271.59375 C 128.714844 271.402344 128.441406 271.21875 128.183594 271.046875 C 121.363281 266.574219 114.953125 261.496094 109.128906 255.792969 C 102.984375 249.65625 97.613281 242.78125 92.878906 235.492188 C 87.507812 227.0625 83.183594 217.910156 80.347656 208.265625 C 77.398438 198.648438 76.035156 188.558594 75.945312 178.46875 C 76.035156 168.375 77.398438 158.285156 80.347656 148.671875 C 83.183594 139.023438 87.507812 129.871094 92.875 121.445312 C 97.308594 114.585938 102.347656 108.136719 108.011719 102.273438 C 108.746094 101.472656 109.5625 100.753906 110.339844 100 C 111.128906 99.257812 111.898438 98.488281 112.707031 97.765625 L 115.160156 95.628906 L 116.386719 94.5625 L 117.660156 93.550781 L 120.203125 91.519531 C 121.066406 90.859375 121.953125 90.238281 122.828125 89.59375 C 124.550781 88.273438 126.386719 87.113281 128.183594 85.890625 C 128.441406 85.714844 128.710938 85.535156 128.996094 85.34375 C 129.289062 85.167969 129.59375 84.984375 129.910156 84.792969 C 130.542969 84.414062 131.226562 84.007812 131.953125 83.574219 C 133.386719 82.671875 135.085938 81.824219 136.917969 80.847656 C 137.378906 80.613281 137.839844 80.351562 138.328125 80.117188 C 138.820312 79.890625 139.316406 79.660156 139.828125 79.421875 C 140.847656 78.953125 141.902344 78.464844 142.992188 77.960938 C 145.222656 77.085938 147.550781 76.039062 150.089844 75.226562 C 160.117188 71.589844 172.628906 69.34375 185.183594 69.292969 C 197.738281 69.34375 210.253906 71.589844 220.277344 75.226562 C 222.816406 76.039062 225.144531 77.085938 227.378906 77.960938 C 228.46875 78.464844 229.523438 78.953125 230.539062 79.421875 C 231.050781 79.660156 231.550781 79.890625 232.039062 80.117188 C 232.527344 80.351562 232.988281 80.613281 233.449219 80.847656 C 235.28125 81.824219 236.980469 82.671875 238.414062 83.574219 C 239.140625 84.007812 239.824219 84.414062 240.457031 84.792969 C 240.773438 84.984375 241.078125 85.167969 241.371094 85.34375 C 241.65625 85.535156 241.925781 85.714844 242.1875 85.890625 C 249.007812 90.359375 255.414062 95.4375 261.242188 101.140625 C 267.382812 107.277344 272.753906 114.152344 277.492188 121.441406 C 282.859375 129.871094 287.1875 139.023438 290.019531 148.671875 C 292.972656 158.285156 294.335938 168.375 294.421875 178.46875 C 294.335938 188.558594 292.972656 198.648438 290.019531 208.265625 Z M 296.933594 178.394531 L 296.929688 178.382812 C 296.839844 168.082031 295.453125 157.769531 292.453125 147.941406 C 289.566406 138.078125 285.144531 128.71875 279.628906 120.121094 L 276.980469 116.136719 C 276.980469 116.136719 276.214844 115.066406 275.066406 113.460938 C 273.960938 111.820312 272.265625 109.800781 270.652344 107.722656 C 268.910156 105.75 267.238281 103.710938 265.832031 102.324219 C 264.46875 100.898438 263.558594 99.949219 263.558594 99.949219 C 263.558594 99.949219 263.328125 99.714844 262.914062 99.316406 C 262.5 98.914062 261.910156 98.34375 261.199219 97.660156 C 259.816406 96.25 257.804688 94.550781 255.835938 92.804688 C 254.824219 91.964844 253.78125 91.160156 252.820312 90.386719 C 252.339844 90.003906 251.871094 89.632812 251.429688 89.28125 C 250.972656 88.949219 250.539062 88.636719 250.136719 88.347656 C 248.535156 87.191406 247.46875 86.425781 247.46875 86.425781 C 247.46875 86.425781 247.238281 86.234375 246.863281 85.992188 C 246.488281 85.742188 245.992188 85.410156 245.496094 85.078125 C 244.503906 84.414062 243.511719 83.75 243.511719 83.75 C 243.246094 83.570312 242.96875 83.382812 242.679688 83.1875 C 242.378906 83.003906 242.070312 82.816406 241.746094 82.621094 C 241.097656 82.230469 240.398438 81.8125 239.660156 81.367188 C 238.191406 80.445312 236.457031 79.570312 234.582031 78.574219 C 234.109375 78.328125 233.636719 78.0625 233.136719 77.824219 C 232.636719 77.589844 232.125 77.351562 231.605469 77.109375 C 230.5625 76.625 229.484375 76.125 228.367188 75.609375 C 226.085938 74.710938 223.703125 73.640625 221.101562 72.804688 C 210.84375 69.078125 198.03125 66.769531 185.183594 66.71875 C 172.335938 66.769531 159.527344 69.078125 149.265625 72.804688 C 146.667969 73.640625 144.285156 74.710938 142 75.609375 C 140.886719 76.125 139.804688 76.625 138.761719 77.109375 C 138.242188 77.351562 137.730469 77.589844 137.230469 77.824219 C 136.730469 78.0625 136.257812 78.328125 135.785156 78.574219 C 133.910156 79.570312 132.175781 80.445312 130.710938 81.367188 C 129.96875 81.8125 129.273438 82.234375 128.621094 82.621094 C 128.300781 82.816406 127.988281 83.007812 127.691406 83.1875 C 127.398438 83.382812 127.121094 83.570312 126.855469 83.75 C 126.855469 83.75 125.863281 84.414062 124.871094 85.078125 C 124.375 85.410156 123.878906 85.742188 123.507812 85.992188 C 123.132812 86.234375 122.898438 86.425781 122.898438 86.425781 C 122.898438 86.425781 121.832031 87.191406 120.230469 88.347656 C 119.832031 88.636719 119.398438 88.949219 118.941406 89.28125 C 118.496094 89.632812 118.03125 90.003906 117.546875 90.386719 C 116.585938 91.160156 115.546875 91.964844 114.535156 92.804688 C 112.5625 94.550781 110.554688 96.25 109.167969 97.660156 C 108.460938 98.34375 107.871094 98.914062 107.457031 99.316406 C 107.039062 99.714844 106.8125 99.949219 106.8125 99.949219 C 106.8125 99.949219 105.902344 100.898438 104.535156 102.324219 C 103.128906 103.710938 101.460938 105.75 99.71875 107.722656 C 98.101562 109.800781 96.40625 111.820312 95.304688 113.460938 C 94.152344 115.066406 93.386719 116.140625 93.386719 116.140625 L 90.738281 120.121094 C 85.226562 128.71875 80.804688 138.078125 77.917969 147.941406 C 74.914062 157.769531 73.527344 168.082031 73.4375 178.386719 L 73.4375 178.394531 L 73.433594 178.46875 L 73.4375 178.542969 L 73.4375 178.550781 C 73.527344 188.855469 74.914062 199.164062 77.917969 208.996094 C 80.804688 218.855469 85.226562 228.21875 90.738281 236.8125 L 93.386719 240.796875 C 93.386719 240.796875 94.15625 241.867188 95.304688 243.476562 C 96.410156 245.113281 98.101562 247.136719 99.71875 249.214844 C 101.460938 251.1875 103.128906 253.222656 104.535156 254.613281 C 105.902344 256.035156 106.8125 256.988281 106.8125 256.988281 C 106.8125 256.988281 107.039062 257.222656 107.457031 257.621094 C 107.871094 258.019531 108.460938 258.59375 109.167969 259.277344 C 110.554688 260.6875 112.5625 262.386719 114.535156 264.128906 C 115.546875 264.96875 116.585938 265.773438 117.546875 266.546875 C 118.03125 266.933594 118.496094 267.304688 118.941406 267.65625 C 119.398438 267.984375 119.832031 268.296875 120.230469 268.585938 C 121.832031 269.742188 122.898438 270.511719 122.898438 270.511719 C 122.898438 270.511719 123.132812 270.699219 123.507812 270.941406 C 123.878906 271.191406 124.375 271.523438 124.871094 271.855469 C 125.863281 272.523438 126.859375 273.1875 126.859375 273.1875 C 127.121094 273.363281 127.398438 273.554688 127.691406 273.746094 C 127.988281 273.929688 128.300781 274.117188 128.625 274.3125 C 129.273438 274.703125 129.96875 275.121094 130.710938 275.566406 C 132.175781 276.492188 133.914062 277.363281 135.789062 278.363281 C 136.257812 278.605469 136.734375 278.875 137.230469 279.113281 C 137.730469 279.347656 138.242188 279.585938 138.761719 279.828125 C 139.804688 280.308594 140.886719 280.808594 142 281.328125 C 144.285156 282.226562 146.667969 283.296875 149.265625 284.132812 C 159.527344 287.859375 172.335938 290.167969 185.183594 290.21875 C 198.03125 290.167969 210.84375 287.859375 221.105469 284.132812 C 223.703125 283.296875 226.085938 282.222656 228.371094 281.324219 C 229.484375 280.808594 230.5625 280.308594 231.605469 279.828125 C 232.125 279.585938 232.636719 279.347656 233.140625 279.113281 C 233.636719 278.875 234.109375 278.605469 234.582031 278.363281 C 236.457031 277.363281 238.191406 276.492188 239.660156 275.566406 C 240.402344 275.121094 241.097656 274.703125 241.746094 274.3125 C 242.070312 274.117188 242.382812 273.929688 242.679688 273.746094 C 242.96875 273.550781 243.246094 273.363281 243.511719 273.1875 C 243.511719 273.1875 244.503906 272.523438 245.496094 271.855469 C 245.992188 271.523438 246.488281 271.191406 246.863281 270.941406 C 247.238281 270.699219 247.46875 270.511719 247.46875 270.511719 C 247.46875 270.511719 248.535156 269.742188 250.136719 268.585938 C 250.539062 268.296875 250.972656 267.984375 251.429688 267.65625 C 251.871094 267.304688 252.339844 266.933594 252.820312 266.546875 C 253.78125 265.773438 254.824219 264.96875 255.835938 264.128906 C 257.804688 262.386719 259.816406 260.6875 261.199219 259.277344 C 261.910156 258.59375 262.5 258.019531 262.914062 257.621094 C 263.328125 257.222656 263.558594 256.988281 263.558594 256.988281 C 263.558594 256.988281 264.46875 256.035156 265.832031 254.613281 C 267.238281 253.222656 268.910156 251.1875 270.652344 249.214844 C 272.265625 247.136719 273.960938 245.113281 275.066406 243.476562 C 276.214844 241.867188 276.980469 240.796875 276.980469 240.796875 L 279.628906 236.8125 C 285.144531 228.21875 289.566406 218.855469 292.453125 208.996094 C 295.453125 199.164062 296.839844 188.855469 296.929688 178.550781 L 296.933594 178.542969 L 296.933594 178.394531 " fill-opacity="1" fill-rule="nonzero"/></g><g clip-path="url(#id2)"><path fill="#ffffff" d="M 255.335938 241.425781 L 254.859375 250.722656 L 221.113281 250.722656 L 221.710938 241.425781 Z M 247.589844 200.683594 C 247.589844 200.683594 248.449219 185.503906 235.71875 169.777344 C 238.636719 155.246094 234.722656 135.777344 231.011719 132.914062 C 223.996094 133.324219 209.347656 138.472656 201.210938 151.421875 C 192.972656 148.480469 181.34375 147.703125 169.617188 150.640625 C 169.617188 150.640625 155.738281 136.019531 139.460938 132.914062 C 131.566406 138.691406 134.039062 166.839844 133.957031 170.378906 C 128.453125 180.21875 107.632812 210.289062 141.855469 231.378906 C 137.308594 243.105469 135.5 250.558594 135.5 250.558594 L 219.878906 250.722656 C 219.878906 250.722656 221.4375 234.230469 223.113281 226.070312 C 224.789062 217.910156 226.347656 204.222656 229.929688 202.621094 C 233.511719 201.015625 236.3125 204.820312 236.3125 204.820312 C 236.3125 204.820312 240.359375 194.859375 243.523438 203.742188 C 242.613281 200.378906 247.589844 200.683594 247.589844 200.683594 Z M 247.589844 200.683594 " fill-opacity="1" fill-rule="nonzero"/></g><path fill="#efb07d" d="M 225.300781 213.34375 C 227.933594 200.019531 233.320312 201.339844 236.3125 204.820312 C 236.789062 200.738281 241.097656 199.417969 243.609375 202.660156 C 253.304688 193.058594 254.859375 221.546875 254.859375 221.546875 L 254.859375 239.984375 C 254.859375 239.984375 252.6875 247.066406 237.808594 247.066406 C 224.824219 247.066406 221.113281 241.304688 221.113281 241.304688 C 221.113281 241.304688 222.667969 226.664062 225.300781 213.34375 Z M 170.035156 150.8125 C 167.164062 146.503906 148.675781 131.484375 139.703125 132.929688 C 129.53125 144.691406 134.4375 170.378906 134.4375 170.378906 C 134.4375 170.378906 126.035156 181.644531 125.035156 192.53125 C 125.359375 200.5625 147.125 214.625 172.011719 193.734375 C 195.660156 173.878906 176.617188 149.613281 176.617188 149.613281 C 176.617188 149.613281 173.386719 149.839844 170.035156 150.8125 Z M 228.980469 139.890625 L 221.113281 155.894531 C 221.113281 155.894531 228.140625 161.734375 229.992188 166.773438 C 231.84375 161.972656 232.335938 149.730469 228.980469 139.890625 Z M 228.980469 139.890625 " fill-opacity="1" fill-rule="nonzero"/><g clip-path="url(#id3)"><path fill="#ef5454" d="M 254.859375 250.722656 C 254.859375 250.722656 254.859375 250.722656 240.320312 250.722656 C 251.628906 249.695312 253.007812 219.105469 253.007812 219.105469 Z M 148.160156 155.894531 C 148.160156 155.894531 141.933594 142.929688 140.898438 139.890625 C 138.265625 146.292969 137.832031 162.292969 139.882812 166.773438 C 143.921875 161.84375 148.160156 155.894531 148.160156 155.894531 Z M 219.941406 250.722656 C 221.273438 242.355469 223.101562 230.847656 224.574219 221.570312 C 224.566406 221.570312 224.558594 221.574219 224.550781 221.578125 L 226.058594 204.917969 C 225.960938 205.035156 225.839844 205.199219 225.691406 205.414062 C 224.550781 207.066406 221.96875 211.828125 219.882812 223.144531 C 211.339844 225.695312 200.085938 227.449219 185.269531 227.550781 C 127.828125 227.15625 123.917969 201.890625 123.917969 201.890625 C 123.917969 201.890625 122.878906 205.300781 125.085938 210.863281 C 124.441406 210.320312 123.953125 209.886719 123.683594 209.621094 C 125.375 222.382812 141.9375 232.226562 141.9375 232.226562 L 135.5 250.722656 C 135.5 250.722656 142.253906 250.722656 149.59375 250.722656 C 154.0625 236.09375 159.460938 236.480469 159.460938 236.480469 C 170.707031 238.949219 181.503906 239.613281 185.269531 239.613281 C 189.039062 239.613281 199.835938 238.949219 211.082031 236.480469 C 211.082031 236.480469 213.84375 236.285156 217.050781 241.519531 C 215.882812 248.972656 215.507812 250.714844 215.507812 250.714844 Z M 200.902344 151.421875 L 207.527344 153.332031 C 207.527344 153.332031 210 144.40625 220.808594 136.867188 C 213.269531 138.929688 205.132812 144.394531 200.902344 151.421875 Z M 149.207031 136.867188 C 160.019531 144.40625 162.492188 153.332031 162.492188 153.332031 L 169.113281 151.421875 C 164.886719 144.394531 156.746094 138.929688 149.207031 136.867188 Z M 189.640625 207.183594 C 189.640625 207.183594 184.21875 208.433594 179.589844 207.046875 C 180.226562 212.382812 188.046875 212.863281 189.640625 207.183594 Z M 189.640625 207.183594 " fill-opacity="0.298" fill-rule="nonzero"/></g><g clip-path="url(#id4)"><path fill="#ffffff" d="M 135.265625 148.460938 C 135.265625 148.460938 134.054688 165.183594 139.75 173.179688 C 133.71875 177.578125 123.378906 191.867188 123.671875 203.5 C 121.394531 195.941406 124.660156 183.015625 133.675781 171.457031 C 132.761719 164.613281 133.675781 155.203125 135.265625 148.460938 Z M 223.347656 234.914062 C 226.578125 210.878906 232.097656 203.519531 232.097656 203.519531 C 223.015625 201.0625 222.511719 224.222656 223.347656 234.914062 Z M 130.148438 219.105469 C 130.148438 219.105469 141.257812 229.304688 148.078125 230.382812 C 145.328125 233.863281 139.75 250.722656 139.75 250.722656 L 134.796875 250.722656 L 141.257812 231.824219 C 141.257812 231.824219 130.402344 226.433594 130.148438 219.105469 Z M 130.148438 219.105469 " fill-opacity="1" fill-rule="nonzero"/></g><g clip-path="url(#id5)"><path fill="#2b0806" d="M 256.652344 250.722656 C 255.128906 250.722656 253.125 250.722656 253.125 250.722656 C 253.09375 244.875 254.121094 214.664062 251.0625 204.484375 C 249.445312 199.097656 244.402344 201.671875 243.71875 206.160156 C 243.261719 203.90625 242.742188 201.484375 240.449219 201.726562 C 237.613281 202.019531 236.453125 207.042969 236.453125 207.042969 C 236.453125 207.042969 234.179688 203.382812 232.097656 203.519531 C 228.808594 203.738281 226.644531 208.582031 225.066406 218.898438 C 224.179688 224.695312 221.898438 250.722656 221.898438 250.722656 L 218.964844 250.722656 C 218.964844 250.722656 220.578125 232.78125 221.097656 228.894531 L 221.109375 228.785156 L 221.527344 225.753906 C 222.472656 219.09375 223.527344 213.054688 224.539062 209.234375 C 227.183594 199.289062 233.175781 198.242188 235.878906 203.019531 C 237.265625 197.898438 243.28125 197.042969 243.914062 201.550781 C 244.113281 200.609375 245.050781 199.476562 246.367188 199.003906 C 245.84375 191.324219 242.492188 182.058594 234.414062 170.976562 C 236.179688 167.253906 238.0625 149.75 230.648438 134.371094 C 226.898438 134.371094 214.335938 137.449219 202.207031 150.671875 C 204.269531 151.386719 206.207031 152.261719 207.832031 153.332031 C 207.328125 153.351562 196.25 150.199219 185.175781 150.199219 C 174.097656 150.199219 163.023438 153.351562 162.519531 153.332031 C 164.144531 152.261719 166.082031 151.386719 168.140625 150.671875 C 156.015625 137.449219 143.453125 134.371094 139.703125 134.371094 C 132.285156 149.75 134.171875 167.253906 135.9375 170.976562 C 106.675781 211.128906 139.40625 227.398438 144.070312 231.042969 C 141.4375 236.445312 136.589844 250.722656 136.589844 250.722656 L 133.339844 250.722656 C 133.339844 250.722656 136.484375 240.773438 140.3125 231.890625 C 111.101562 214.664062 120.554688 186.457031 132.523438 171.457031 C 128.933594 150.214844 136.351562 131.96875 139.222656 131.484375 C 158.253906 135.136719 167.976562 146.507812 170.523438 149.925781 C 173.941406 148.964844 179.554688 147.5625 185.175781 147.558594 C 190.785156 147.558594 196.402344 148.960938 199.828125 149.925781 C 202.371094 146.507812 212.097656 135.136719 231.125 131.484375 C 234 131.96875 241.417969 150.214844 237.828125 171.457031 C 243.507812 178.574219 248.613281 188.667969 249.296875 199.148438 C 250.28125 199.585938 251.320312 200.441406 252.339844 201.902344 C 254.242188 204.628906 254.53125 208.148438 255.429688 215.234375 C 256.257812 221.777344 256.652344 246.855469 256.652344 250.722656 Z M 228.980469 139.890625 C 228.980469 139.890625 223.523438 147.636719 219.511719 155.886719 C 222.203125 157.652344 227.734375 163.414062 229.992188 166.773438 C 231.058594 164.855469 225.53125 156.710938 222.714844 155.132812 C 225.644531 152.011719 228.980469 139.890625 228.980469 139.890625 Z M 140.898438 139.890625 C 140.898438 139.890625 146.355469 147.636719 150.367188 155.886719 C 147.675781 157.652344 142.144531 163.414062 139.882812 166.773438 C 138.820312 164.855469 144.347656 156.710938 147.160156 155.132812 C 144.230469 152.011719 140.898438 139.890625 140.898438 139.890625 Z M 156.121094 178.679688 C 150.03125 180.121094 145.902344 186.21875 144.644531 191.273438 C 144.453125 192.042969 144.867188 192.65625 145.71875 192.867188 C 147.101562 193.214844 149.617188 192.507812 149.988281 191.023438 C 150.472656 189.078125 151.292969 187.316406 152.433594 185.78125 C 153.289062 184.625 154.964844 182.628906 156.542969 182.230469 C 157.8125 181.914062 159.027344 183.996094 159.679688 185.113281 L 159.832031 185.378906 C 160.949219 187.269531 161.855469 189.460938 162.515625 191.894531 C 162.75 192.746094 163.585938 193.082031 164.507812 193.082031 C 164.894531 193.082031 165.296875 193.023438 165.675781 192.917969 C 167.226562 192.496094 168.113281 191.484375 167.832031 190.460938 C 165.394531 181.515625 161.34375 177.441406 156.121094 178.679688 Z M 225.226562 190.460938 C 222.789062 181.515625 218.738281 177.441406 213.515625 178.679688 C 207.421875 180.121094 203.296875 186.21875 202.039062 191.273438 C 201.921875 191.742188 202.03125 192.167969 202.34375 192.46875 C 203.003906 193.105469 204.316406 193.023438 205.242188 192.757812 C 206.394531 192.425781 207.191406 191.777344 207.382812 191.023438 C 207.863281 189.078125 208.6875 187.316406 209.824219 185.78125 C 210.683594 184.625 212.359375 182.628906 213.9375 182.230469 C 215.207031 181.914062 216.421875 183.996094 217.074219 185.117188 L 217.226562 185.378906 C 218.34375 187.269531 219.246094 189.460938 219.910156 191.894531 C 220.058594 192.433594 220.488281 192.824219 221.121094 192.992188 C 221.363281 193.054688 221.628906 193.085938 221.902344 193.085938 C 222.929688 193.085938 224.101562 192.664062 224.75 192.007812 C 225.203125 191.546875 225.371094 190.996094 225.226562 190.460938 Z M 193.769531 193.152344 C 193.121094 193.496094 192.816406 194.609375 193.449219 195.800781 C 193.816406 196.492188 193.421875 197.207031 193.15625 197.570312 C 192.460938 198.523438 191.207031 199.101562 190.246094 198.921875 C 188.585938 198.609375 187.589844 196.65625 186.90625 194.988281 C 186.585938 194.210938 185.914062 193.726562 185.152344 193.726562 C 184.394531 193.726562 183.722656 194.210938 183.402344 194.988281 C 182.839844 196.355469 181.792969 198.90625 180.0625 199.230469 C 179.328125 199.367188 178.410156 199.011719 177.675781 198.304688 C 176.59375 197.210938 176.917969 195.785156 177.035156 195.394531 C 177.046875 195.367188 177.054688 195.335938 177.066406 195.296875 L 177.320312 194.621094 L 177.191406 194.621094 C 177.226562 193.917969 176.945312 193.3125 176.441406 193.109375 C 176.011719 192.933594 175.375 193.066406 174.894531 193.972656 C 174 195.65625 173.953125 197.660156 174.761719 199.332031 C 175.515625 200.882812 176.933594 201.949219 178.652344 202.253906 C 181.117188 202.695312 183.355469 201.648438 185.152344 199.230469 C 186.683594 201.289062 188.53125 202.351562 190.566406 202.351562 C 190.925781 202.351562 191.285156 202.320312 191.652344 202.253906 C 193.371094 201.949219 194.789062 200.882812 195.542969 199.332031 C 196.355469 197.660156 196.304688 195.65625 195.410156 193.972656 C 194.890625 192.996094 194.203125 192.921875 193.769531 193.152344 Z M 193.769531 193.152344 " fill-opacity="1" fill-rule="nonzero"/></g><path fill="#ef5454" d="M 239.859375 217.34375 C 238.964844 216.332031 235.386719 213.597656 233.085938 218.0625 C 230.785156 222.527344 237.066406 226.992188 239.859375 226.992188 C 242.65625 226.992188 248.9375 222.527344 246.636719 218.0625 C 244.335938 213.597656 240.753906 216.332031 239.859375 217.34375 Z M 242.054688 209.820312 C 242.054688 208.457031 241.277344 207.355469 240.320312 207.355469 C 239.359375 207.355469 238.582031 208.457031 238.582031 209.820312 C 238.582031 211.183594 239.359375 212.289062 240.320312 212.289062 C 241.277344 212.289062 242.054688 211.183594 242.054688 209.820312 Z M 247.441406 208.835938 C 246.46875 208.6875 245.492188 209.597656 245.265625 210.867188 C 245.035156 212.136719 245.640625 213.285156 246.613281 213.433594 C 247.585938 213.582031 248.558594 212.671875 248.789062 211.402344 C 249.015625 210.132812 248.414062 208.984375 247.441406 208.835938 Z M 233.40625 213.554688 C 234.390625 213.269531 234.828125 212.011719 234.382812 210.742188 C 233.9375 209.476562 232.78125 208.679688 231.796875 208.964844 C 230.8125 209.253906 230.375 210.511719 230.820312 211.777344 C 231.265625 213.046875 232.421875 213.839844 233.40625 213.554688 Z M 233.40625 213.554688 " fill-opacity="1" fill-rule="nonzero"/><g clip-path="url(#id6)"><path fill="#000000" d="M 272.066406 262.214844 L 272.066406 290.972656 L 256.667969 299.125 L 304.988281 299.125 L 294.9375 280.671875 L 304.988281 262.214844 L 272.066406 262.214844 " fill-opacity="1" fill-rule="nonzero"/></g><path fill="#000000" d="M 252.152344 291.285156 L 252.152344 297.925781 L 264.703125 291.285156 Z M 252.152344 291.285156 " fill-opacity="1" fill-rule="nonzero"/><g clip-path="url(#id7)"><path fill="#000000" d="M 268.894531 251.144531 L 105.722656 251.144531 L 105.722656 288.113281 L 268.894531 288.113281 L 268.894531 251.144531 " fill-opacity="1" fill-rule="nonzero"/></g><g clip-path="url(#id8)"><path fill="#000000" d="M 102.550781 291.285156 L 102.550781 262.214844 L 70.109375 262.222656 L 80.160156 280.671875 L 70.117188 299.132812 L 118.417969 299.117188 L 102.550781 291.285156 " fill-opacity="1" fill-rule="nonzero"/></g><path fill="#000000" d="M 122.984375 297.921875 L 123.035156 291.285156 L 110.238281 291.285156 Z M 122.984375 297.921875 " fill-opacity="1" fill-rule="nonzero"/><g fill="#ffffff" fill-opacity="1"><g transform="translate(109.263366, 277.048079)"><g><path d="M 17 0.542969 C 17.710938 0.542969 18.425781 0 18.507812 -0.671875 L 18.507812 -1.800781 C 18.339844 -4.605469 18.257812 -7.242188 18.128906 -9.503906 C 18.046875 -12.101562 17.964844 -14.238281 17.835938 -15.492188 C 17.796875 -16.289062 17.082031 -16.789062 16.289062 -16.75 C 15.410156 -16.707031 14.90625 -16.164062 14.90625 -15.242188 C 14.992188 -13.609375 15.074219 -11.933594 15.117188 -9.921875 C 15.117188 -9.628906 14.992188 -9.503906 14.695312 -9.464844 C 12.476562 -9.296875 10.21875 -9.042969 7.957031 -8.710938 L 7.285156 -8.625 C 7.035156 -8.582031 6.867188 -8.75 6.867188 -9.042969 C 6.785156 -12.519531 6.910156 -13.859375 6.992188 -15.15625 C 7.078125 -15.660156 6.992188 -16.289062 6.867188 -16.664062 C 6.65625 -17.210938 6.070312 -17.417969 5.316406 -17.417969 L 5.277344 -17.417969 C 4.5625 -17.417969 4.144531 -16.957031 4.0625 -16.371094 L 4.019531 -15.285156 C 3.976562 -14.445312 3.9375 -13.316406 3.894531 -12.769531 C 3.851562 -10.46875 3.851562 -9.378906 3.851562 -8.25 L 3.851562 -7.078125 C 3.851562 -6.449219 3.894531 -4.898438 3.9375 -3.515625 L 4.019531 -1.046875 C 4.0625 -0.167969 4.691406 0.417969 5.527344 0.417969 C 6.492188 0.375 6.992188 -0.167969 6.992188 -1.128906 C 6.992188 -1.675781 6.949219 -2.175781 6.867188 -3.515625 C 6.824219 -4.019531 6.824219 -4.691406 6.785156 -5.527344 C 6.742188 -5.820312 6.867188 -5.945312 7.160156 -5.988281 C 9.796875 -6.324219 12.183594 -6.617188 14.949219 -6.824219 C 15.199219 -6.867188 15.367188 -6.699219 15.367188 -6.40625 C 15.324219 -3.808594 15.367188 -2.722656 15.410156 -1.589844 C 15.410156 -0.964844 15.410156 -0.835938 15.449219 -0.585938 C 15.578125 0.0820312 16.203125 0.542969 17 0.542969 Z M 17 0.542969 "/></g></g></g><g fill="#ffffff" fill-opacity="1"><g transform="translate(131.538774, 277.048079)"><g><path d="M 9.546875 -0.628906 C 10.425781 -0.628906 11.429688 -0.835938 12.101562 -1.257812 C 13.273438 -1.925781 14.109375 -2.722656 14.613281 -3.683594 C 15.285156 -4.855469 15.742188 -6.070312 16.078125 -7.621094 C 16.539062 -9.757812 16.539062 -11.851562 16.582031 -13.945312 L 16.582031 -15.199219 C 16.582031 -15.242188 16.582031 -15.285156 16.582031 -15.324219 C 16.582031 -15.367188 16.539062 -15.449219 16.539062 -15.492188 C 16.539062 -15.535156 16.582031 -15.660156 16.332031 -15.996094 C 16.121094 -16.332031 15.742188 -16.496094 15.285156 -16.496094 C 14.613281 -16.539062 14.109375 -16.203125 13.945312 -15.617188 C 13.945312 -15.492188 13.902344 -15.449219 13.902344 -15.367188 C 13.859375 -15.117188 13.816406 -15.03125 13.816406 -14.863281 C 13.816406 -14.363281 13.816406 -13.902344 13.777344 -13.398438 L 13.777344 -12.015625 C 13.734375 -10.46875 13.652344 -8.917969 13.273438 -7.453125 C 12.898438 -6.070312 12.476562 -4.691406 11.390625 -3.683594 C 10.761719 -3.140625 10.175781 -2.890625 9.589844 -2.890625 C 8.835938 -2.890625 8.164062 -3.308594 7.664062 -4.144531 C 7.203125 -4.898438 6.867188 -5.777344 6.574219 -6.949219 C 6.238281 -8.542969 6.03125 -10.425781 6.03125 -12.351562 C 5.988281 -13.691406 5.945312 -14.613281 5.863281 -15.492188 C 5.863281 -16.039062 5.820312 -16.289062 5.738281 -16.664062 C 5.570312 -17.210938 5.023438 -17.503906 4.398438 -17.460938 C 3.769531 -17.460938 3.183594 -17.082031 3.058594 -16.496094 C 3.015625 -16.332031 3.015625 -16.246094 3.015625 -15.996094 L 3.015625 -15.492188 C 3.015625 -15.410156 3.015625 -15.367188 3.015625 -15.285156 C 3.015625 -15.117188 3.058594 -14.992188 3.058594 -14.824219 C 3.097656 -14.65625 3.097656 -14.445312 3.140625 -14.195312 C 3.140625 -13.816406 3.183594 -13.441406 3.140625 -13.0625 C 3.097656 -12.644531 3.097656 -12.226562 3.097656 -11.808594 C 3.097656 -9.796875 3.515625 -7.664062 4.101562 -5.316406 C 4.3125 -4.523438 4.648438 -3.769531 5.148438 -2.972656 C 6.15625 -1.464844 7.703125 -0.628906 9.546875 -0.628906 Z M 9.546875 -0.628906 "/></g></g></g><g fill="#ffffff" fill-opacity="1"><g transform="translate(151.134433, 277.048079)"><g><path d="M 8.375 0.753906 C 10.089844 0.753906 11.765625 0.292969 12.605469 -0.335938 C 12.898438 -0.628906 13.023438 -0.878906 13.023438 -1.171875 C 13.023438 -2.261719 11.683594 -2.636719 10.300781 -2.011719 C 9.628906 -1.714844 9.128906 -1.632812 8.542969 -1.632812 C 8.082031 -1.632812 7.621094 -1.507812 7.117188 -2.304688 C 6.65625 -3.058594 6.53125 -4.523438 6.40625 -6.113281 L 6.324219 -6.742188 C 6.28125 -7.035156 6.449219 -7.160156 6.699219 -7.203125 L 7.957031 -7.410156 C 9.253906 -7.621094 10.636719 -7.832031 11.558594 -8.082031 C 12.183594 -8.289062 12.5625 -8.667969 12.5625 -9.171875 C 12.5625 -10.050781 11.765625 -10.46875 10.46875 -10.300781 C 9.921875 -10.257812 9.128906 -10.132812 8.332031 -10.007812 C 7.746094 -9.964844 7.203125 -9.882812 6.742188 -9.796875 C 6.492188 -9.757812 6.324219 -9.921875 6.28125 -10.175781 C 6.195312 -11.472656 6.113281 -13.816406 6.03125 -14.992188 C 6.03125 -15.242188 6.15625 -15.410156 6.40625 -15.449219 C 7.746094 -15.785156 8.417969 -15.828125 9.210938 -15.910156 C 10.21875 -16.039062 11.222656 -16.121094 12.226562 -16.078125 C 13.023438 -16.039062 13.691406 -16.414062 13.734375 -17 C 13.859375 -17.878906 12.980469 -18.550781 11.683594 -18.550781 C 9.796875 -18.550781 5.527344 -18.128906 4.144531 -17.671875 C 3.433594 -17.417969 3.097656 -16.957031 3.140625 -16.289062 C 3.140625 -15.996094 3.140625 -15.703125 3.183594 -15.410156 L 3.183594 -14.570312 C 3.183594 -13.191406 3.390625 -12.101562 3.390625 -8.960938 C 3.390625 -7.535156 3.433594 -6.113281 3.515625 -4.648438 C 3.558594 -2.21875 4.4375 -0.460938 6.070312 0.335938 C 6.574219 0.628906 7.371094 0.753906 8.375 0.753906 Z M 8.375 0.753906 "/></g></g></g><g fill="#ffffff" fill-opacity="1"><g transform="translate(167.506018, 277.048079)"><g><path d="M 7.578125 -0.417969 C 9.921875 -0.628906 11.851562 -0.628906 12.769531 -0.671875 C 13.523438 -0.628906 14.070312 -1.257812 14.070312 -1.96875 C 14.070312 -2.679688 13.523438 -3.558594 12.605469 -3.558594 C 11.722656 -3.558594 9.503906 -3.476562 7.703125 -3.308594 C 7.410156 -3.265625 7.285156 -3.390625 7.242188 -3.683594 C 6.992188 -5.609375 6.992188 -7.578125 6.992188 -9.671875 C 6.992188 -12.269531 6.949219 -15.324219 6.867188 -16.371094 C 6.785156 -17.167969 6.53125 -18.089844 5.191406 -18.089844 C 3.976562 -18.089844 3.851562 -17.378906 3.851562 -16.246094 C 3.894531 -14.363281 3.9375 -11.683594 3.9375 -9.839844 C 3.894531 -6.03125 4.019531 -4.691406 4.1875 -3.097656 C 4.4375 -1.003906 5.527344 -0.25 7.578125 -0.417969 Z M 7.578125 -0.417969 "/></g></g></g><g fill="#ffffff" fill-opacity="1"><g transform="translate(184.589414, 277.048079)"><g><path d="M 7.578125 -0.417969 C 9.921875 -0.628906 11.851562 -0.628906 12.769531 -0.671875 C 13.523438 -0.628906 14.070312 -1.257812 14.070312 -1.96875 C 14.070312 -2.679688 13.523438 -3.558594 12.605469 -3.558594 C 11.722656 -3.558594 9.503906 -3.476562 7.703125 -3.308594 C 7.410156 -3.265625 7.285156 -3.390625 7.242188 -3.683594 C 6.992188 -5.609375 6.992188 -7.578125 6.992188 -9.671875 C 6.992188 -12.269531 6.949219 -15.324219 6.867188 -16.371094 C 6.785156 -17.167969 6.53125 -18.089844 5.191406 -18.089844 C 3.976562 -18.089844 3.851562 -17.378906 3.851562 -16.246094 C 3.894531 -14.363281 3.9375 -11.683594 3.9375 -9.839844 C 3.894531 -6.03125 4.019531 -4.691406 4.1875 -3.097656 C 4.4375 -1.003906 5.527344 -0.25 7.578125 -0.417969 Z M 7.578125 -0.417969 "/></g></g></g><g fill="#ffffff" fill-opacity="1"><g transform="translate(201.67281, 277.048079)"><g><path d="M 6.574219 -17.125 C 6.324219 -17.628906 5.820312 -17.921875 5.234375 -17.921875 C 4.480469 -17.921875 3.9375 -17.460938 3.9375 -16.75 L 3.9375 -16.707031 C 3.9375 -16.332031 4.019531 -16.039062 4.0625 -15.660156 L 4.0625 -15.199219 C 4.0625 -14.53125 4.0625 -13.816406 4.019531 -13.105469 C 4.019531 -12.394531 3.976562 -11.683594 3.976562 -10.96875 L 3.851562 -1.714844 C 3.851562 -1.339844 3.851562 -1.171875 3.894531 -0.921875 C 4.019531 -0.335938 4.691406 0.125 5.402344 0.125 C 5.863281 0.125 6.324219 -0.0820312 6.617188 -0.417969 C 6.867188 -0.710938 6.867188 -1.046875 6.867188 -1.421875 L 6.867188 -15.703125 C 6.867188 -16.164062 6.785156 -16.582031 6.574219 -17.125 Z M 6.574219 -17.125 "/></g></g></g><g fill="#ffffff" fill-opacity="1"><g transform="translate(212.308067, 277.048079)"><g><path d="M 8.835938 0.835938 C 9.628906 0.835938 10.21875 0.417969 10.300781 -0.210938 C 10.34375 -0.503906 10.382812 -0.671875 10.382812 -0.878906 C 10.382812 -0.921875 10.382812 -0.964844 10.382812 -1.003906 C 10.382812 -1.089844 10.34375 -1.171875 10.34375 -1.296875 C 10.34375 -3.976562 9.921875 -9.589844 9.921875 -12.226562 L 9.921875 -14.277344 C 9.921875 -14.53125 10.050781 -14.65625 10.300781 -14.695312 C 11.808594 -14.949219 13.316406 -15.199219 14.824219 -15.449219 C 15.535156 -15.578125 15.996094 -15.996094 15.996094 -16.625 C 15.996094 -17.585938 15.324219 -17.921875 14.195312 -17.835938 C 13.105469 -17.753906 9.964844 -17.292969 9.296875 -17.210938 L 7.410156 -16.957031 L 3.769531 -16.582031 C 3.308594 -16.539062 2.761719 -16.457031 2.34375 -16.246094 C 1.800781 -15.953125 1.507812 -15.492188 1.507812 -15.03125 C 1.507812 -14.90625 1.550781 -14.738281 1.632812 -14.613281 C 1.882812 -14.070312 2.386719 -13.777344 3.140625 -13.777344 C 3.308594 -13.777344 3.894531 -13.859375 6.40625 -14.152344 C 6.699219 -14.195312 6.867188 -13.984375 6.867188 -13.734375 L 6.867188 -12.605469 C 6.867188 -10.96875 6.949219 -8.417969 7.078125 -6.03125 C 7.203125 -3.976562 7.328125 -1.96875 7.328125 -0.585938 C 7.328125 -0.460938 7.328125 -0.375 7.371094 -0.25 C 7.535156 0.417969 8.082031 0.835938 8.835938 0.835938 Z M 8.835938 0.835938 "/></g></g></g><g fill="#ffffff" fill-opacity="1"><g transform="translate(229.81018, 277.048079)"><g><path d="M 15.242188 -0.167969 C 16.164062 -0.167969 16.75 -0.671875 16.75 -1.550781 C 16.75 -1.96875 16.664062 -2.429688 16.539062 -2.972656 C 15.871094 -5.316406 14.78125 -10.84375 13.652344 -14.277344 C 12.980469 -15.910156 11.976562 -17.878906 10.550781 -17.878906 C 9.589844 -17.878906 8.457031 -16.707031 7.203125 -14.402344 C 6.324219 -12.730469 4.230469 -8.5 2.136719 -3.515625 C 1.339844 -1.550781 1.089844 -0.335938 2.636719 -0.335938 C 3.433594 -0.335938 3.976562 -0.671875 4.355469 -1.507812 C 4.730469 -2.261719 5.191406 -3.351562 5.777344 -4.605469 C 5.902344 -4.816406 6.070312 -4.898438 6.28125 -4.898438 C 8.332031 -4.855469 10.34375 -5.109375 12.351562 -5.445312 C 12.605469 -5.484375 12.769531 -5.359375 12.8125 -5.109375 L 12.980469 -4.480469 C 13.230469 -3.433594 13.441406 -2.386719 13.777344 -1.339844 C 13.984375 -0.585938 14.488281 -0.167969 15.242188 -0.167969 Z M 7.078125 -7.996094 C 7.703125 -9.421875 8.542969 -11.390625 9.757812 -13.777344 C 10.050781 -14.320312 10.425781 -14.488281 10.59375 -14.152344 C 11.347656 -12.351562 11.808594 -10.300781 12.226562 -8.5 C 12.269531 -8.25 12.144531 -8.039062 11.890625 -7.996094 C 10.382812 -7.789062 8.917969 -7.535156 7.410156 -7.496094 C 7.078125 -7.496094 6.949219 -7.703125 7.078125 -7.996094 Z M 7.078125 -7.996094 "/></g></g></g><g fill="#ffffff" fill-opacity="1"><g transform="translate(248.065965, 277.048079)"><g><path d="M 8.332031 0.167969 C 9.757812 0.167969 11.179688 -0.210938 12.351562 -0.921875 C 13.691406 -1.632812 14.53125 -3.140625 14.53125 -4.648438 C 14.53125 -7.160156 12.9375 -8.582031 10.089844 -9.796875 C 8.125 -10.71875 6.238281 -11.472656 6.238281 -13.105469 C 6.238281 -14.65625 7.496094 -15.660156 9.714844 -15.660156 C 11.976562 -15.660156 11.683594 -14.027344 13.0625 -14.027344 C 13.691406 -14.027344 14.445312 -14.363281 14.402344 -15.242188 C 14.195312 -17.25 11.890625 -18.046875 9.714844 -18.046875 C 8.960938 -18.046875 8.164062 -17.964844 7.453125 -17.796875 C 4.855469 -17.210938 3.222656 -15.535156 3.222656 -13.023438 C 3.222656 -10.46875 5.109375 -8.710938 8.125 -7.578125 C 9.589844 -6.992188 11.515625 -5.988281 11.515625 -4.605469 C 11.515625 -2.890625 9.921875 -2.21875 8.25 -2.21875 C 7.371094 -2.21875 6.65625 -2.46875 6.195312 -2.890625 C 5.652344 -3.308594 5.191406 -3.726562 4.691406 -4.230469 C 4.3125 -4.648438 3.644531 -4.941406 3.183594 -4.855469 C 3.015625 -4.773438 2.890625 -4.730469 2.761719 -4.605469 C 2.429688 -4.3125 2.304688 -3.9375 2.304688 -3.601562 C 2.304688 -2.511719 3.183594 -2.011719 3.976562 -1.421875 C 5.316406 -0.417969 6.65625 0.167969 8.332031 0.167969 Z M 8.332031 0.167969 "/></g></g></g><g fill="#000000" fill-opacity="1"><g transform="translate(104.220866, 135.914311)"><g><path d="M -4.1875 -5.96875 C -4.101562 -6.101562 -3.992188 -6.21875 -3.859375 -6.3125 C -3.722656 -6.40625 -3.570312 -6.453125 -3.40625 -6.453125 C -3.238281 -6.460938 -3.085938 -6.425781 -2.953125 -6.34375 C -2.816406 -6.269531 -2.703125 -6.160156 -2.609375 -6.015625 C -2.515625 -5.878906 -2.472656 -5.726562 -2.484375 -5.5625 C -2.492188 -5.40625 -2.539062 -5.253906 -2.625 -5.109375 C -2.695312 -4.972656 -2.800781 -4.859375 -2.9375 -4.765625 C -3.070312 -4.671875 -3.222656 -4.625 -3.390625 -4.625 C -3.554688 -4.625 -3.707031 -4.660156 -3.84375 -4.734375 C -3.976562 -4.816406 -4.085938 -4.925781 -4.171875 -5.0625 C -4.265625 -5.207031 -4.304688 -5.359375 -4.296875 -5.515625 C -4.296875 -5.679688 -4.257812 -5.832031 -4.1875 -5.96875 Z M -4.1875 -5.96875 "/></g></g></g><g fill="#000000" fill-opacity="1"><g transform="translate(107.184512, 130.561555)"><g/></g></g><g fill="#000000" fill-opacity="1"><g transform="translate(109.890931, 126.077239)"><g><path d="M -9.046875 -7.828125 L -3.078125 -15.578125 C -2.609375 -15.523438 -2.269531 -15.421875 -2.0625 -15.265625 C -1.894531 -15.140625 -1.878906 -14.988281 -2.015625 -14.8125 L -4.65625 -11.390625 L 3.609375 -5.03125 C 3.535156 -4.75 3.425781 -4.515625 3.28125 -4.328125 C 3.132812 -4.128906 3 -4.039062 2.875 -4.0625 L -5.390625 -10.421875 L -8.015625 -7 C -8.441406 -6.96875 -8.753906 -7.023438 -8.953125 -7.171875 C -9.097656 -7.296875 -9.128906 -7.515625 -9.046875 -7.828125 Z M -9.046875 -7.828125 "/></g></g></g><g fill="#000000" fill-opacity="1"><g transform="translate(116.477191, 117.702901)"><g><path d="M 0.765625 -1.1875 L -7.84375 -9 C -7.769531 -9.414062 -7.671875 -9.695312 -7.546875 -9.84375 C -7.398438 -10 -7.226562 -10.039062 -7.03125 -9.96875 L 1.46875 -2.25 C 1.382812 -1.757812 1.28125 -1.441406 1.15625 -1.296875 C 1.039062 -1.171875 0.910156 -1.132812 0.765625 -1.1875 Z M 0.765625 -1.1875 "/></g></g></g><g fill="#000000" fill-opacity="1"><g transform="translate(119.11906, 114.571274)"><g><path d="M -7.140625 -9.65625 L -1.140625 -15.28125 C -0.941406 -15.3125 -0.800781 -15.285156 -0.71875 -15.203125 C -0.550781 -15.023438 -0.445312 -14.820312 -0.40625 -14.59375 L -5.53125 -9.78125 L -2.640625 -6.6875 L 1.8125 -11.5 C 1.988281 -11.582031 2.140625 -11.554688 2.265625 -11.421875 C 2.472656 -11.191406 2.570312 -10.960938 2.5625 -10.734375 L -1.90625 -5.921875 L 1.21875 -2.578125 L 6.296875 -7.34375 C 6.429688 -7.363281 6.570312 -7.296875 6.71875 -7.140625 C 6.851562 -7.003906 6.960938 -6.816406 7.046875 -6.578125 L 1.03125 -0.9375 Z M -7.140625 -9.65625 "/></g></g></g><g fill="#000000" fill-opacity="1"><g transform="translate(126.664871, 107.387315)"><g><path d="M 0.828125 -1.0625 L -5.5625 -10.859375 C -5.488281 -11.109375 -5.421875 -11.253906 -5.359375 -11.296875 C -5.171875 -11.429688 -4.9375 -11.5 -4.65625 -11.5 L 6.390625 -7.75 L 0.765625 -15.46875 C 1.023438 -15.863281 1.207031 -16.101562 1.3125 -16.1875 C 1.476562 -16.28125 1.644531 -16.285156 1.8125 -16.203125 L 8.828125 -6.59375 C 8.679688 -6.414062 8.503906 -6.25 8.296875 -6.09375 C 8.171875 -6 8.046875 -5.945312 7.921875 -5.9375 L -3.34375 -9.765625 L 1.96875 -1.640625 C 1.71875 -1.347656 1.503906 -1.132812 1.328125 -1 C 1.171875 -0.882812 1.003906 -0.90625 0.828125 -1.0625 Z M 0.828125 -1.0625 "/></g></g></g><g fill="#000000" fill-opacity="1"><g transform="translate(136.166277, 100.422428)"><g><path d="M 5.296875 -9.859375 C 4.398438 -11.484375 3.367188 -12.335938 2.203125 -12.421875 C 1.035156 -12.515625 0.0703125 -12.363281 -0.6875 -11.96875 L -2.9375 -10.71875 L 1.6875 -2.375 L 3.921875 -3.625 C 5.097656 -4.269531 5.769531 -5.195312 5.9375 -6.40625 C 6.113281 -7.613281 5.898438 -8.765625 5.296875 -9.859375 Z M 6.5 -10.515625 C 7.351562 -8.984375 7.644531 -7.507812 7.375 -6.09375 C 7.101562 -4.675781 6.140625 -3.507812 4.484375 -2.59375 L 1.171875 -0.75 L -4.578125 -11.15625 L -1.265625 -13 C 0.242188 -13.832031 1.691406 -14.03125 3.078125 -13.59375 C 4.460938 -13.15625 5.601562 -12.128906 6.5 -10.515625 Z M 6.5 -10.515625 "/></g></g></g><g fill="#000000" fill-opacity="1"><g transform="translate(145.819975, 95.025237)"><g><path d="M 1.640625 -12.546875 L 1.625 -6.703125 L 5.296875 -8.484375 Z M 6.265625 -7.390625 L 1.625 -5.140625 L 1.640625 -0.9375 C 1.253906 -0.664062 0.941406 -0.484375 0.703125 -0.390625 C 0.523438 -0.316406 0.359375 -0.316406 0.203125 -0.390625 L 0.15625 -12.78125 C 0.894531 -13.34375 1.421875 -13.6875 1.734375 -13.8125 C 1.960938 -13.90625 2.179688 -13.921875 2.390625 -13.859375 L 10.625 -4.5 C 10.238281 -4.21875 9.90625 -4.023438 9.625 -3.921875 C 9.40625 -3.828125 9.28125 -3.828125 9.25 -3.921875 L 9.234375 -3.9375 Z M 6.265625 -7.390625 "/></g></g></g><g fill="#000000" fill-opacity="1"><g transform="translate(156.421771, 90.880543)"><g/></g></g><g fill="#000000" fill-opacity="1"><g transform="translate(161.378572, 89.228082)"><g><path d="M 8 -7.8125 C 7.632812 -9.632812 6.910156 -10.757812 5.828125 -11.1875 C 4.742188 -11.625 3.78125 -11.769531 2.9375 -11.625 L 0.421875 -11.109375 L 2.328125 -1.765625 L 4.828125 -2.265625 C 6.148438 -2.535156 7.070312 -3.222656 7.59375 -4.328125 C 8.113281 -5.429688 8.25 -6.59375 8 -7.8125 Z M 9.34375 -8.09375 C 9.695312 -6.375 9.535156 -4.878906 8.859375 -3.609375 C 8.179688 -2.347656 6.914062 -1.519531 5.0625 -1.125 L 1.34375 -0.375 L -1.046875 -12.015625 L 2.671875 -12.765625 C 4.359375 -13.109375 5.800781 -12.867188 7 -12.046875 C 8.195312 -11.222656 8.976562 -9.90625 9.34375 -8.09375 Z M 9.34375 -8.09375 "/></g></g></g><g fill="#000000" fill-opacity="1"><g transform="translate(172.229808, 86.993078)"><g><path d="M 0.390625 -12 L 8.578125 -12.6875 C 8.765625 -12.59375 8.863281 -12.484375 8.875 -12.359375 C 8.894531 -12.128906 8.851562 -11.910156 8.75 -11.703125 L 1.734375 -11.109375 L 2.078125 -6.890625 L 8.5625 -7.890625 C 8.75 -7.835938 8.851562 -7.71875 8.875 -7.53125 C 8.894531 -7.238281 8.832031 -7.003906 8.6875 -6.828125 L 2.171875 -5.828125 L 2.546875 -1.265625 L 9.484375 -1.84375 C 9.609375 -1.78125 9.6875 -1.640625 9.71875 -1.421875 C 9.726562 -1.222656 9.691406 -1.007812 9.609375 -0.78125 L 1.390625 -0.09375 Z M 0.390625 -12 "/></g></g></g><g fill="#000000" fill-opacity="1"><g transform="translate(182.788656, 86.207854)"><g/></g></g><g fill="#000000" fill-opacity="1"><g transform="translate(187.923102, 85.929526)"><g><path d="M 1.328125 -0.234375 L 3.265625 -11.734375 C 3.660156 -11.859375 4.023438 -11.898438 4.359375 -11.859375 C 4.585938 -11.835938 4.773438 -11.734375 4.921875 -11.546875 L 7.84375 -0.9375 L 13.078125 -10.625 C 13.535156 -10.738281 13.882812 -10.78125 14.125 -10.75 C 14.40625 -10.707031 14.578125 -10.53125 14.640625 -10.21875 L 13.9375 1.4375 C 13.519531 1.476562 13.222656 1.488281 13.046875 1.46875 C 12.796875 1.4375 12.628906 1.3125 12.546875 1.09375 L 13.234375 -8.453125 L 8.359375 0.671875 C 8.160156 0.828125 7.910156 0.882812 7.609375 0.84375 C 7.304688 0.8125 7.070312 0.695312 6.90625 0.5 L 4.203125 -9.421875 L 2.53125 0.078125 C 2.195312 0.171875 1.898438 0.203125 1.640625 0.171875 C 1.453125 0.148438 1.347656 0.015625 1.328125 -0.234375 Z M 1.328125 -0.234375 "/></g></g></g><g fill="#000000" fill-opacity="1"><g transform="translate(202.487588, 87.661014)"><g><path d="M 8.796875 -9.09375 L 5.3125 -4.40625 L 9.296875 -3.671875 Z M 9.4375 -2.203125 L 4.359375 -3.15625 L 1.875 0.234375 C 1.40625 0.210938 1.046875 0.171875 0.796875 0.109375 C 0.609375 0.0546875 0.476562 -0.0351562 0.40625 -0.171875 L 7.75 -10.1875 C 8.664062 -10.1875 9.285156 -10.144531 9.609375 -10.0625 C 9.847656 -10 10.035156 -9.882812 10.171875 -9.71875 L 11.21875 2.703125 C 10.75 2.703125 10.363281 2.664062 10.0625 2.59375 C 9.84375 2.53125 9.742188 2.445312 9.765625 2.34375 L 9.765625 2.328125 Z M 9.4375 -2.203125 "/></g></g></g><g fill="#000000" fill-opacity="1"><g transform="translate(213.392233, 90.52671)"><g><path d="M 1.359375 -2.09375 C 1.765625 -2.425781 2.054688 -2.566406 2.234375 -2.515625 C 2.429688 -2.410156 2.582031 -2.222656 2.6875 -1.953125 C 3.164062 -0.671875 4.015625 0.203125 5.234375 0.671875 C 6.171875 1.035156 6.914062 1.148438 7.46875 1.015625 C 8.019531 0.890625 8.441406 0.484375 8.734375 -0.203125 C 8.941406 -0.804688 8.898438 -1.300781 8.609375 -1.6875 C 8.316406 -2.082031 7.738281 -2.625 6.875 -3.3125 C 5.800781 -4.175781 5.007812 -4.960938 4.5 -5.671875 C 3.988281 -6.378906 3.878906 -7.132812 4.171875 -7.9375 C 4.523438 -8.8125 5.222656 -9.363281 6.265625 -9.59375 C 7.304688 -9.820312 8.265625 -9.769531 9.140625 -9.4375 C 10.160156 -9.03125 10.875 -8.609375 11.28125 -8.171875 C 11.695312 -7.734375 11.988281 -7.304688 12.15625 -6.890625 C 12.320312 -6.398438 12.378906 -6.078125 12.328125 -5.921875 C 12.273438 -5.785156 11.882812 -5.789062 11.15625 -5.9375 C 10.9375 -6.71875 10.601562 -7.265625 10.15625 -7.578125 C 9.707031 -7.898438 9.1875 -8.175781 8.59375 -8.40625 C 7.757812 -8.695312 7.09375 -8.753906 6.59375 -8.578125 C 6.09375 -8.410156 5.722656 -8.023438 5.484375 -7.421875 C 5.347656 -7.054688 5.441406 -6.648438 5.765625 -6.203125 C 6.085938 -5.765625 6.59375 -5.273438 7.28125 -4.734375 C 8.507812 -3.828125 9.359375 -2.992188 9.828125 -2.234375 C 10.296875 -1.472656 10.347656 -0.628906 9.984375 0.296875 C 9.640625 1.191406 8.9375 1.78125 7.875 2.0625 C 6.8125 2.34375 5.773438 2.289062 4.765625 1.90625 C 3.148438 1.269531 2.015625 -0.0625 1.359375 -2.09375 Z M 1.359375 -2.09375 "/></g></g></g><g fill="#000000" fill-opacity="1"><g transform="translate(222.133879, 93.842485)"><g><path d="M 10.09375 2.65625 C 9.882812 2.976562 9.320312 3.207031 8.40625 3.34375 C 7.5 3.476562 6.535156 3.285156 5.515625 2.765625 C 3.910156 1.941406 2.941406 0.84375 2.609375 -0.53125 C 2.273438 -1.914062 2.53125 -3.425781 3.375 -5.0625 C 4.132812 -6.539062 5.242188 -7.570312 6.703125 -8.15625 C 8.160156 -8.75 9.609375 -8.675781 11.046875 -7.9375 C 12.066406 -7.40625 12.929688 -6.421875 13.640625 -4.984375 C 13.691406 -4.816406 13.726562 -4.648438 13.75 -4.484375 C 13.289062 -4.085938 12.96875 -3.941406 12.78125 -4.046875 C 12.625 -4.117188 12.503906 -4.234375 12.421875 -4.390625 C 11.835938 -5.460938 11.148438 -6.203125 10.359375 -6.609375 L 10.34375 -6.609375 C 9.226562 -7.191406 8.140625 -7.289062 7.078125 -6.90625 C 6.015625 -6.519531 5.160156 -5.707031 4.515625 -4.46875 C 3.785156 -3.039062 3.597656 -1.800781 3.953125 -0.75 C 4.316406 0.289062 5.03125 1.085938 6.09375 1.640625 C 7.039062 2.128906 7.773438 2.28125 8.296875 2.09375 C 8.828125 1.90625 9.179688 1.765625 9.359375 1.671875 C 9.992188 2.023438 10.238281 2.351562 10.09375 2.65625 Z M 10.09375 2.65625 "/></g></g></g><g fill="#000000" fill-opacity="1"><g transform="translate(231.179025, 98.414889)"><g><path d="M 11.5 0.46875 C 12.144531 -0.488281 12.503906 -1.507812 12.578125 -2.59375 C 12.660156 -3.675781 12.070312 -4.644531 10.8125 -5.5 C 9.488281 -6.394531 8.398438 -6.628906 7.546875 -6.203125 C 6.691406 -5.785156 5.878906 -5.003906 5.109375 -3.859375 C 4.265625 -2.609375 3.835938 -1.492188 3.828125 -0.515625 C 3.816406 0.460938 4.414062 1.363281 5.625 2.1875 C 6.976562 3.09375 8.09375 3.332031 8.96875 2.90625 C 9.84375 2.488281 10.6875 1.675781 11.5 0.46875 Z M 4.046875 -4.734375 C 4.960938 -6.085938 6.101562 -6.988281 7.46875 -7.4375 C 8.832031 -7.882812 10.234375 -7.625 11.671875 -6.65625 C 13.046875 -5.726562 13.785156 -4.523438 13.890625 -3.046875 C 14.003906 -1.566406 13.617188 -0.171875 12.734375 1.140625 C 11.660156 2.722656 10.488281 3.757812 9.21875 4.25 C 7.957031 4.738281 6.519531 4.4375 4.90625 3.34375 C 3.4375 2.351562 2.671875 1.132812 2.609375 -0.3125 C 2.554688 -1.769531 3.035156 -3.242188 4.046875 -4.734375 Z M 4.046875 -4.734375 "/></g></g></g><g fill="#000000" fill-opacity="1"><g transform="translate(240.687236, 104.829733)"><g><path d="M 8.34375 -8.5625 L 15.734375 -2.15625 C 15.648438 -1.6875 15.523438 -1.351562 15.359375 -1.15625 C 15.222656 -1 15.066406 -1 14.890625 -1.15625 L 11.640625 -3.96875 L 4.8125 3.90625 C 4.53125 3.8125 4.300781 3.6875 4.125 3.53125 C 3.9375 3.363281 3.859375 3.21875 3.890625 3.09375 L 10.71875 -4.78125 L 7.46875 -7.59375 C 7.445312 -8.007812 7.519531 -8.316406 7.6875 -8.515625 C 7.8125 -8.648438 8.03125 -8.664062 8.34375 -8.5625 Z M 8.34375 -8.5625 "/></g></g></g><g fill="#000000" fill-opacity="1"><g transform="translate(248.628964, 111.647504)"><g><path d="M 12.328125 -2.796875 L 6.859375 -0.796875 L 9.78125 2.03125 Z M 9.109375 3.328125 L 5.375 -0.265625 L 1.453125 1.21875 C 1.046875 0.945312 0.757812 0.71875 0.59375 0.53125 C 0.457031 0.382812 0.40625 0.226562 0.4375 0.0625 L 12.046875 -4.28125 C 12.816406 -3.78125 13.316406 -3.40625 13.546875 -3.15625 C 13.710938 -2.96875 13.804688 -2.773438 13.828125 -2.578125 L 7.90625 8.40625 C 7.5 8.144531 7.195312 7.90625 7 7.6875 C 6.84375 7.507812 6.804688 7.382812 6.890625 7.3125 L 6.90625 7.296875 Z M 9.109375 3.328125 "/></g></g></g><g fill="#000000" fill-opacity="1"><g transform="translate(256.187933, 120.012801)"><g><path d="M 2.28125 -1.03125 C 2.800781 -1.070312 3.117188 -1.015625 3.234375 -0.859375 C 3.359375 -0.671875 3.390625 -0.441406 3.328125 -0.171875 C 3.023438 1.171875 3.253906 2.367188 4.015625 3.421875 C 4.597656 4.234375 5.15625 4.738281 5.6875 4.9375 C 6.226562 5.132812 6.804688 5.03125 7.421875 4.625 C 7.921875 4.226562 8.15625 3.78125 8.125 3.28125 C 8.101562 2.789062 7.914062 2.023438 7.5625 0.984375 C 7.132812 -0.328125 6.898438 -1.414062 6.859375 -2.28125 C 6.828125 -3.15625 7.15625 -3.847656 7.84375 -4.359375 C 8.613281 -4.890625 9.492188 -4.96875 10.484375 -4.59375 C 11.484375 -4.226562 12.257812 -3.664062 12.8125 -2.90625 C 13.445312 -2 13.816406 -1.25 13.921875 -0.65625 C 14.023438 -0.0625 14.03125 0.453125 13.9375 0.890625 C 13.820312 1.378906 13.695312 1.671875 13.5625 1.765625 C 13.445312 1.859375 13.125 1.648438 12.59375 1.140625 C 12.820312 0.347656 12.835938 -0.296875 12.640625 -0.796875 C 12.441406 -1.304688 12.15625 -1.820312 11.78125 -2.34375 C 11.257812 -3.039062 10.738281 -3.453125 10.21875 -3.578125 C 9.707031 -3.710938 9.191406 -3.59375 8.671875 -3.21875 C 8.359375 -2.988281 8.210938 -2.597656 8.234375 -2.046875 C 8.253906 -1.492188 8.398438 -0.800781 8.671875 0.03125 C 9.210938 1.445312 9.472656 2.601562 9.453125 3.5 C 9.429688 4.394531 9.015625 5.132812 8.203125 5.71875 C 7.421875 6.28125 6.507812 6.382812 5.46875 6.03125 C 4.425781 5.6875 3.585938 5.070312 2.953125 4.1875 C 1.953125 2.789062 1.726562 1.050781 2.28125 -1.03125 Z M 2.28125 -1.03125 "/></g></g></g><g fill="#000000" fill-opacity="1"><g transform="translate(261.666969, 127.748228)"><g/></g></g><g fill="#000000" fill-opacity="1"><g transform="translate(264.456282, 132.401253)"><g><path d="M 1.375 2.375 C 0.832031 2.195312 0.476562 1.960938 0.3125 1.671875 C 0.238281 1.535156 0.320312 1.320312 0.5625 1.03125 L 2.15625 0.171875 C 2.6875 0.347656 3.023438 0.578125 3.171875 0.859375 C 3.242188 0.992188 3.132812 1.238281 2.84375 1.59375 Z M 1.375 2.375 "/></g></g></g></svg>